<svg width="114" height="21" viewBox="0 0 114 21" fill="none" xmlns="http://www.w3.org/2000/svg">
<path d="M2.36 1.06V15H0.54V1.06H2.36ZM7.28188 13.52H12.1619V15H5.46188V1.06H7.28188V13.52ZM18.8747 15.18C17.848 15.18 16.9147 14.9467 16.0747 14.48C15.248 14.0133 14.5947 13.3533 14.1147 12.5C13.648 11.6333 13.4147 10.6333 13.4147 9.5C13.4147 8.38 13.6547 7.39333 14.1347 6.54C14.628 5.67333 15.2947 5.01333 16.1347 4.56C16.9747 4.09333 17.9147 3.86 18.9547 3.86C19.9947 3.86 20.9347 4.09333 21.7747 4.56C22.6147 5.01333 23.2747 5.66667 23.7547 6.52C24.248 7.37333 24.4947 8.36667 24.4947 9.5C24.4947 10.6333 24.2414 11.6333 23.7347 12.5C23.2414 13.3533 22.568 14.0133 21.7147 14.48C20.8614 14.9467 19.9147 15.18 18.8747 15.18ZM18.8747 13.58C19.528 13.58 20.1414 13.4267 20.7147 13.12C21.288 12.8133 21.748 12.3533 22.0947 11.74C22.4547 11.1267 22.6347 10.38 22.6347 9.5C22.6347 8.62 22.4614 7.87333 22.1147 7.26C21.768 6.64667 21.3147 6.19333 20.7547 5.9C20.1947 5.59333 19.588 5.44 18.9347 5.44C18.268 5.44 17.6547 5.59333 17.0947 5.9C16.548 6.19333 16.108 6.64667 15.7747 7.26C15.4414 7.87333 15.2747 8.62 15.2747 9.5C15.2747 10.3933 15.4347 11.1467 15.7547 11.76C16.088 12.3733 16.528 12.8333 17.0747 13.14C17.6214 13.4333 18.2214 13.58 18.8747 13.58ZM30.9677 13.32L34.3677 4.04H36.3077L32.0077 15H29.8877L25.5877 4.04H27.5477L30.9677 13.32ZM48.0986 9.1C48.0986 9.44667 48.0786 9.81333 48.0386 10.2H39.2786C39.3453 11.28 39.7119 12.1267 40.3786 12.74C41.0586 13.34 41.8786 13.64 42.8386 13.64C43.6253 13.64 44.2786 13.46 44.7986 13.1C45.3319 12.7267 45.7053 12.2333 45.9186 11.62H47.8786C47.5853 12.6733 46.9986 13.5333 46.1186 14.2C45.2386 14.8533 44.1453 15.18 42.8386 15.18C41.7986 15.18 40.8653 14.9467 40.0386 14.48C39.2253 14.0133 38.5853 13.3533 38.1186 12.5C37.6519 11.6333 37.4186 10.6333 37.4186 9.5C37.4186 8.36667 37.6453 7.37333 38.0986 6.52C38.5519 5.66667 39.1853 5.01333 39.9986 4.56C40.8253 4.09333 41.7719 3.86 42.8386 3.86C43.8786 3.86 44.7986 4.08667 45.5986 4.54C46.3986 4.99333 47.0119 5.62 47.4386 6.42C47.8786 7.20667 48.0986 8.1 48.0986 9.1ZM46.2186 8.72C46.2186 8.02667 46.0653 7.43333 45.7586 6.94C45.4519 6.43333 45.0319 6.05333 44.4986 5.8C43.9786 5.53333 43.3986 5.4 42.7586 5.4C41.8386 5.4 41.0519 5.69333 40.3986 6.28C39.7586 6.86667 39.3919 7.68 39.2986 8.72H46.2186ZM71.1056 1.06C73.0923 1.06 74.6323 1.54 75.7256 2.5C76.8323 3.46 77.3856 4.79333 77.3856 6.5C77.3856 7.03333 77.339 7.55333 77.2456 8.06C76.9923 9.48667 76.4723 10.7267 75.6856 11.78C74.9123 12.82 73.919 13.62 72.7056 14.18C71.5056 14.7267 70.1456 15 68.6256 15H64.2856L66.7656 1.06H71.1056ZM68.8856 13.6C70.6723 13.6 72.1256 13.1133 73.2456 12.14C74.3656 11.1533 75.079 9.79333 75.3856 8.06C75.4656 7.58 75.5056 7.12667 75.5056 6.7C75.5056 5.38 75.1123 4.36 74.3256 3.64C73.539 2.90667 72.379 2.54 70.8456 2.54H68.3256L66.3656 13.6H68.8856ZM83.2463 15.18C82.3263 15.18 81.5129 14.9933 80.8063 14.62C80.1129 14.2333 79.5729 13.7 79.1863 13.02C78.7996 12.3267 78.6063 11.5267 78.6063 10.62C78.6063 9.38 78.8929 8.24667 79.4663 7.22C80.0396 6.18 80.8263 5.36 81.8263 4.76C82.8396 4.16 83.9663 3.86 85.2063 3.86C86.1263 3.86 86.9396 4.05333 87.6463 4.44C88.3663 4.81333 88.9196 5.34667 89.3063 6.04C89.7063 6.72 89.9063 7.52 89.9063 8.44C89.9063 9.68 89.6129 10.8133 89.0263 11.84C88.4396 12.8667 87.6396 13.68 86.6263 14.28C85.6129 14.88 84.4863 15.18 83.2463 15.18ZM83.4663 13.64C84.3329 13.64 85.1129 13.4067 85.8063 12.94C86.4996 12.46 87.0396 11.8333 87.4263 11.06C87.8263 10.2733 88.0263 9.43333 88.0263 8.54C88.0263 7.52667 87.7329 6.75333 87.1463 6.22C86.5596 5.67333 85.8263 5.4 84.9463 5.4C84.0796 5.4 83.3063 5.64 82.6263 6.12C81.9463 6.58667 81.4196 7.21333 81.0463 8C80.6729 8.78667 80.4863 9.63333 80.4863 10.54C80.4863 11.5267 80.7663 12.2933 81.3263 12.84C81.8863 13.3733 82.5996 13.64 83.4663 13.64ZM97.7192 3.86C98.6659 3.86 99.4592 4.06667 100.099 4.48C100.739 4.89333 101.173 5.41333 101.399 6.04L101.759 4.04H103.599L101.619 15.24C101.446 16.24 101.073 17.1267 100.499 17.9C99.9392 18.6867 99.2259 19.3 98.3592 19.74C97.4926 20.18 96.5326 20.4 95.4792 20.4C94.0392 20.4 92.8992 20.0533 92.0592 19.36C91.2192 18.68 90.8126 17.76 90.8392 16.6H92.6592C92.7392 17.2667 93.0526 17.8 93.5992 18.2C94.1592 18.6133 94.8792 18.82 95.7592 18.82C96.7592 18.82 97.6326 18.5067 98.3792 17.88C99.1259 17.2533 99.5992 16.3733 99.7992 15.24L100.199 12.94C99.7192 13.58 99.0859 14.1133 98.2992 14.54C97.5259 14.9667 96.6659 15.18 95.7192 15.18C94.8659 15.18 94.1126 15 93.4592 14.64C92.8059 14.2667 92.2926 13.74 91.9192 13.06C91.5592 12.38 91.3792 11.5933 91.3792 10.7C91.3792 10.3 91.4192 9.89333 91.4992 9.48C91.6992 8.36 92.0992 7.38 92.6992 6.54C93.3126 5.68667 94.0526 5.02667 94.9192 4.56C95.7992 4.09333 96.7326 3.86 97.7192 3.86ZM100.799 9.5C100.853 9.22 100.879 8.92 100.879 8.6C100.879 7.62667 100.586 6.86 99.9992 6.3C99.4259 5.72667 98.6926 5.44 97.7992 5.44C97.1192 5.44 96.4659 5.6 95.8392 5.92C95.2259 6.24 94.6992 6.70667 94.2592 7.32C93.8192 7.93333 93.5259 8.65333 93.3792 9.48C93.3259 9.76 93.2992 10.0667 93.2992 10.4C93.2992 11.3867 93.5859 12.1667 94.1592 12.74C94.7326 13.3 95.4659 13.58 96.3592 13.58C97.0392 13.58 97.6859 13.42 98.2992 13.1C98.9259 12.7667 99.4592 12.2933 99.8992 11.68C100.353 11.0533 100.653 10.3267 100.799 9.5ZM108.595 15.18C107.448 15.18 106.508 14.9067 105.775 14.36C105.042 13.8133 104.675 13.08 104.675 12.16C104.675 11.9867 104.682 11.86 104.695 11.78H106.475C106.422 12.3533 106.588 12.82 106.975 13.18C107.375 13.54 107.948 13.72 108.695 13.72C109.442 13.72 110.042 13.58 110.495 13.3C110.962 13.0067 111.195 12.6 111.195 12.08C111.195 11.64 111.008 11.2933 110.635 11.04C110.262 10.7867 109.688 10.5133 108.915 10.22C108.235 9.96667 107.675 9.72667 107.235 9.5C106.795 9.27333 106.422 8.96 106.115 8.56C105.808 8.14667 105.655 7.62667 105.655 7C105.655 6.38667 105.828 5.84 106.175 5.36C106.535 4.88 107.028 4.51333 107.655 4.26C108.295 3.99333 109.022 3.86 109.835 3.86C110.955 3.86 111.875 4.14 112.595 4.7C113.315 5.26 113.675 5.99333 113.675 6.9C113.675 7.07333 113.668 7.20667 113.655 7.3H111.915L111.935 7.06C111.935 6.52667 111.728 6.10667 111.315 5.8C110.915 5.48 110.382 5.32 109.715 5.32C109.062 5.32 108.522 5.46667 108.095 5.76C107.682 6.05333 107.475 6.44667 107.475 6.94C107.475 7.40667 107.668 7.77333 108.055 8.04C108.442 8.30667 109.042 8.6 109.855 8.92C110.535 9.18667 111.082 9.43333 111.495 9.66C111.908 9.87333 112.262 10.1733 112.555 10.56C112.848 10.9467 112.995 11.4333 112.995 12.02C112.995 12.66 112.802 13.22 112.415 13.7C112.042 14.18 111.522 14.5467 110.855 14.8C110.188 15.0533 109.435 15.18 108.595 15.18Z" fill="black"/>
<path d="M55.8809 15C55.1809 13.24 54.6209 12.24 52.1609 8.86C50.5809 6.7 49.9809 5.28 49.9809 3.82C49.9809 2.06 51.5009 0.619999 53.2609 0.619999C54.5009 0.619999 55.6409 1.26 56.3409 2.56C57.0609 1.26 58.2009 0.619999 59.4609 0.619999C61.1809 0.619999 62.7409 2.06 62.7409 3.82C62.7409 5.24 62.2409 6.58 60.5609 8.88C58.0809 12.28 57.4809 13.34 56.8209 15H55.8809ZM56.3409 13.26C56.8409 12.24 57.7209 10.9 58.9009 9.28C60.0809 7.66 60.8209 6.48 61.1409 5.78C61.4609 5.08 61.6209 4.42 61.6209 3.82C61.6209 2.68 60.6209 1.74 59.4609 1.74C58.3009 1.74 57.3209 2.74 56.8609 4.4H55.8409C55.3409 2.6 54.3609 1.74 53.2609 1.74C52.1209 1.74 51.1009 2.68 51.1009 3.82C51.1009 4.4 51.2609 5.04 51.5609 5.74C51.8609 6.44 52.6009 7.58 53.7609 9.16C54.9209 10.72 55.7809 12.1 56.3409 13.26Z" fill="#E05529"/>
</svg>
