<svg width="617" height="570" viewBox="0 0 617 570" fill="none" xmlns="http://www.w3.org/2000/svg">
<path d="M289.436 128.183V128.917C289.436 143.692 286.855 157.876 282.143 171.042L282.427 170.165C277.478 183.805 269.498 195.336 259.222 204.311L259.127 204.382C249.158 213.356 235.898 218.826 221.359 218.826C220.98 218.826 220.601 218.826 220.222 218.826H220.27C200.308 218.684 182.265 210.586 169.123 197.538C154.347 183.947 142.744 167.182 135.333 148.31L135.025 147.41C128.229 130.882 124.18 111.726 123.919 91.6457V91.551C123.919 91.3379 123.919 91.0774 123.919 90.817C123.919 76.0412 126.5 61.8575 131.213 48.6919L130.928 49.568C135.877 35.9289 143.857 24.3972 154.134 15.4228L154.229 15.3518C164.198 6.37742 177.482 0.883881 192.02 0.883881C192.447 0.883881 192.873 0.883881 193.299 0.90756H193.228C213.19 1.02595 231.257 9.12419 244.375 22.195C258.985 35.7631 270.517 52.4806 277.904 71.2344L278.212 72.1342C285.056 88.7095 289.105 107.961 289.318 128.111V128.183H289.436ZM162.872 306.912C162.895 307.504 162.895 308.191 162.895 308.901C162.895 327.418 157.07 344.562 147.149 358.627L147.338 358.343C138.032 371.627 122.783 380.222 105.545 380.222C104.763 380.222 103.982 380.199 103.2 380.175H103.319C83.1204 379.915 64.7692 372.172 50.8932 359.574L50.9643 359.645C21.0339 333.859 1.87757 296.257 0.835691 254.179V253.989C0.812012 253.421 0.812012 252.734 0.812012 252.048C0.812012 233.46 6.63706 216.221 16.5586 202.085L16.3692 202.369C25.6277 188.967 40.9007 180.3 58.2101 180.3C58.9678 180.3 59.7492 180.324 60.5069 180.347H60.3885C80.5868 180.608 98.938 188.351 112.814 200.948L112.743 200.877C142.721 226.806 161.853 264.55 162.872 306.794V306.959V306.912ZM308.758 296.919C344.774 298.98 377.333 312.216 403.427 333.172L403.096 332.912C436.696 356.899 464.851 386 487.085 419.388L487.843 420.595C507.355 446.713 519.833 479.106 521.917 514.293L521.941 514.767C521.965 515.383 521.988 516.117 521.988 516.827C521.988 526.393 519.644 535.439 515.5 543.371L515.642 543.063C511.569 550.428 505.413 556.182 497.93 559.615L497.693 559.71C490.803 563.001 482.776 565.582 474.393 567.027L473.825 567.098C465.869 568.4 456.729 569.134 447.399 569.134C446.807 569.134 446.215 569.134 445.623 569.134H445.718C420.287 567.382 396.679 561.415 374.965 551.943L376.338 552.488C356.566 543.726 333.621 537.783 309.563 535.889L308.829 535.841C282.711 537.783 258.511 543.655 236.016 552.866L237.603 552.298C215.794 561.225 190.505 567.121 164.079 568.731L163.416 568.755C118.173 568.787 95.5519 550.798 95.5519 514.791C96.6885 488.53 104.242 464.259 116.674 443.232L116.271 443.943C130.881 416.736 148.025 393.317 167.986 372.621L167.891 372.716C187.9 351.855 210.703 333.906 235.803 319.462L237.271 318.681C257.611 305.894 282.096 297.914 308.379 296.872H308.664L308.758 296.919ZM397.2 218.85C396.868 218.85 396.489 218.85 396.11 218.85C381.571 218.85 368.311 213.356 358.295 204.358L358.342 204.405C347.971 195.336 339.967 183.828 335.231 170.734L335.042 170.165C330.59 157.876 328.009 143.692 328.009 128.917C328.009 128.656 328.009 128.396 328.009 128.135V128.183C328.222 107.937 332.272 88.7095 339.494 71.0923L339.115 72.1342C346.834 52.4569 358.342 35.7631 372.881 22.2661L372.976 22.195C386.094 9.14787 404.161 1.04963 424.099 0.931239H424.123H425.212C439.751 0.931239 453.011 6.42478 463.027 15.4228L462.98 15.3755C473.351 24.4445 481.355 35.9526 486.091 49.0471L486.28 49.6154C490.803 61.9759 493.408 76.2543 493.408 91.1248V91.5984V91.5747C493.171 111.749 489.098 130.929 481.923 148.475L482.302 147.434C474.583 167.206 462.98 183.97 448.299 197.467L448.204 197.562C435.062 210.562 417.019 218.66 397.081 218.779H397.057L397.2 218.85ZM557.033 180.395C557.696 180.371 558.454 180.347 559.212 180.347C576.521 180.347 591.794 189.014 600.934 202.251L601.053 202.416C610.785 216.292 616.61 233.507 616.61 252.119C616.61 252.805 616.61 253.468 616.586 254.155V254.06C615.544 296.328 596.388 333.93 566.647 359.527L566.458 359.693C552.653 372.219 534.301 379.962 514.15 380.222H514.103C513.44 380.246 512.659 380.27 511.877 380.27C494.639 380.27 479.39 371.698 470.202 358.556L470.084 358.39C460.352 344.609 454.527 327.442 454.527 308.948C454.527 308.262 454.527 307.551 454.55 306.865V306.959C455.568 264.55 474.701 226.806 504.489 201.019L504.679 200.854C518.484 188.375 536.788 180.632 556.891 180.371H556.938L557.033 180.395Z" fill="url(#paint0_linear_5_241)" fill-opacity="0.8"/>
<defs>
<linearGradient id="paint0_linear_5_241" x1="308.711" y1="0.883881" x2="308.711" y2="569.134" gradientUnits="userSpaceOnUse">
<stop stop-color="#FFAC00"/>
<stop offset="1" stop-color="#FF5C00"/>
</linearGradient>
</defs>
</svg>
